<svg width="455" height="455" viewBox="0 0 455 455" fill="none" xmlns="http://www.w3.org/2000/svg">
<path fill-rule="evenodd" clip-rule="evenodd" d="M248.974"  fill="#FF565E"/>
<path fill-rule="evenodd" clip-rule="evenodd" d="M129.206  303.588 237.403 304.665 238.075 305.501Z" fill="white"/>
<path fill-rule="evenodd" clip-rule="evenodd" d="M110.944 251.08C114.95 231.268 128.646 214.683 145.652 203.758C137.054 215.544 110.668 234.873 119.149 256.408C132.705 290.83 185.443 296.244 183.608 296.618C152.416 302.978 107.962 265.831 110.944 251.08Z" fill="#E7EAEE"/>
<path fill-rule="evenodd" clip-rule="evenodd" d="145.894Z" fill="#00160A"/>
<path fill-rule="evenodd" clip-rule="evenodd" d="M248.974 305.501Z" fill="white"/>
<path fill-rule="evenodd" clip-rule="evenodd" d="M110.944 251.08C114.95 231.268 128.646 214.683 145.652 203.758C137.054 215.544 110.668 234.873 119.149 256.408C132.705 290.83 185.443 296.244 183.608 296.618C152.416 302.978 107.962 265.831 110.944 251.08Z" fill="#E7EAEE"/>
<path fill-rule="evenodd" clip-rule="evenodd" d="M210.717 145.894Z" fill="#00160A"/>
</svg>
